<?xml version="1.0" encoding="UTF-8" standalone="no"?>
<!-- Created with Inkscape (http://www.inkscape.org/) -->
<svg xmlns:dc="http://purl.org/dc/elements/1.1/" xmlns:cc="http://creativecommons.org/ns#" xmlns:rdf="http://www.w3.org/1999/02/22-rdf-syntax-ns#" xmlns:svg="http://www.w3.org/2000/svg" xmlns="http://www.w3.org/2000/svg" xmlns:sodipodi="http://sodipodi.sourceforge.net/DTD/sodipodi-0.dtd" xmlns:inkscape="http://www.inkscape.org/namespaces/inkscape" width="111.02333mm" height="131.36723mm" viewBox="0 0 111.02333 131.36723" version="1.1" id="svg5104" inkscape:version="0.92.1 r15371" sodipodi:docname="basiccampfire-uspsstamp-1960.svg">
  <defs id="defs5098"/>
  <sodipodi:namedview id="base" pagecolor="#ffffff" bordercolor="#666666" borderopacity="1.0" inkscape:pageopacity="0.0" inkscape:pageshadow="2" inkscape:zoom="0.36769553" inkscape:cx="181.70627" inkscape:cy="209.20347" inkscape:document-units="mm" inkscape:current-layer="g5676" showgrid="false" inkscape:snap-global="false" fit-margin-top="0" fit-margin-left="0" fit-margin-right="0" fit-margin-bottom="0" inkscape:window-width="1366" inkscape:window-height="706" inkscape:window-x="-8" inkscape:window-y="-8" inkscape:window-maximized="1"/>
  <metadata id="metadata5101">
    <rdf:RDF>
      <cc:Work rdf:about="">
        <dc:format>image/svg+xml</dc:format>
        <dc:type rdf:resource="http://purl.org/dc/dcmitype/StillImage"/>
        <dc:title/>
      </cc:Work>
    </rdf:RDF>
  </metadata>
  <g inkscape:label="Layer 1" inkscape:groupmode="layer" id="layer1" transform="translate(29.944836,-82.580616)">
    <g id="g5676" transform="matrix(1.3740288,0,0,1.3876468,-30.325689,-82.936199)">
      <g id="g5682">
        <path style="fill:#c87137;fill-opacity:1;stroke:none;stroke-width:0.26458332px;stroke-linecap:butt;stroke-linejoin:miter;stroke-opacity:1" d="m 9.0871639,179.66868 -4.009043,-0.53454 -3.4745037,6.14719 1.0690779,3.74178 20.3124839,10.69078 -14.9670934,3.4745 -1.603617,4.00905 4.5435814,5.07812 5.078122,0.53454 26.726953,-9.08717 7.750815,2.13816 14.699825,6.1472 5.078121,0.80181 1.069078,-6.1472 -3.474504,-5.87993 -11.49259,-2.40543 16.570711,-3.4745 7.483547,-3.20723 -1.336348,-6.68174 -4.276312,-2.6727 -30.468726,9.88898 -26.726953,-8.28536 -6.414469,-3.4745 z" id="path5670" inkscape:connector-curvature="0"/>
        <path style="fill:#eac322;fill-opacity:1;stroke:none;stroke-width:0.26458332px;stroke-linecap:butt;stroke-linejoin:miter;stroke-opacity:1" d="m 17.907058,175.65963 7.750816,20.31249 8.018086,6.68174 -4.276312,-1.87089 0.801809,3.20723 2.138156,3.20724 9.621702,-3.20724 4.810853,0.26727 5.612659,-4.54358 2.138156,-13.63075 -5.34539,-6.41446 -1.603618,-25.39061 -4.81085,-23.78699 -12.561668,38.48682 z" id="path5668" inkscape:connector-curvature="0"/>
        <path inkscape:connector-curvature="0" id="path5664" d="m 7.7957822,211.71312 c -2.7456779,-2.69458 -3.2484609,-5.40699 -1.347977,-7.27209 1.9941963,-1.95708 2.8108368,-1.3159 1.6122206,1.26579 -0.9352077,2.01434 -0.8182514,2.77792 0.6732239,4.3953 2.3312923,2.5281 6.0978303,2.51672 7.4826073,-0.0222 0.905788,-1.66096 0.589555,-2.46111 -1.962568,-4.96573 -1.673289,-1.64214 -2.814733,-3.34713 -2.536541,-3.78887 0.2782,-0.44175 2.744639,-1.10535 5.481002,-1.47469 2.736359,-0.36935 4.975197,-0.79537 4.975197,-0.9467 0,-0.15145 -1.15728,-2.84329 -2.571736,-5.98207 -1.974036,-4.38054 -2.593354,-7.41658 -2.664762,-13.06325 -0.115049,-9.09809 1.132399,-12.05775 8.938052,-21.20615 8.474572,-9.93241 11.407014,-17.48718 11.586714,-29.85053 0.07606,-5.23305 0.419047,-9.51846 0.762183,-9.52314 0.343139,-0.006 1.649923,2.29901 2.903971,5.11931 1.783637,4.01137 2.378533,7.49962 2.732237,16.02077 0.561205,13.52011 -1.278651,22.48249 -6.805864,33.15303 -4.807316,9.28075 -5.224385,15.14207 -1.580118,22.20642 2.554046,4.95095 2.339253,5.42924 -1.311316,2.91989 -2.287185,-1.5722 -2.354287,-1.56196 -1.601429,0.2442 2.201073,5.28045 2.061849,5.53119 -1.822497,3.28201 -1.997305,-1.15648 -4.293741,-3.03064 -5.103188,-4.16478 -0.809446,-1.13414 -1.471721,-1.49332 -1.471721,-0.79824 0,1.82825 -2.353125,3.86147 -5.312708,4.59044 -2.445244,0.6023 -2.494381,0.7417 -1.032954,2.9306 0.980934,1.46921 1.273361,3.10543 0.81069,4.53604 -0.644411,1.99257 -0.544382,2.09175 0.912728,0.90495 0.90005,-0.73307 1.636458,-2.40378 1.636458,-3.71274 0,-2.73201 1.633831,-2.19471 3.070462,1.00974 0.796381,1.77637 0.888333,1.61144 0.600259,-1.07666 -0.39694,-3.70393 0.563817,-4.05555 2.742047,-1.00359 l 1.54933,2.17079 v -2.32219 c 0,-2.23525 0.07217,-2.25806 1.928121,-0.60972 1.663888,1.47776 2.422504,1.5523 5.535665,0.54399 2.362918,-0.76529 3.964983,-2.06209 4.643578,-3.75869 l 1.036032,-2.59028 0.860697,2.19765 c 1.177214,3.00583 4.439937,2.79419 7.529247,-0.48837 1.986125,-2.11038 2.378291,-2.26737 1.829872,-0.73254 -1.510544,4.22741 -1.660272,5.37201 -0.702726,5.37201 0.548281,0 1.755973,-1.13696 2.683758,-2.52657 1.961595,-2.93803 3.218934,-2.5279 1.562446,0.50964 -1.879993,3.44741 -0.02144,4.46911 2.528944,1.39027 l 2.312737,-2.7919 -0.45605,3.90693 -0.456049,3.90693 1.406054,-2.93838 c 0.773329,-1.61612 2.31217,-3.74314 3.419644,-4.72674 1.778142,-1.57924 2.342069,-1.63459 4.822765,-0.47323 2.215548,1.03721 2.87373,2.07588 3.114684,4.91526 0.34923,4.11531 -2.790036,8.17609 -5.622655,7.27317 -0.907332,-0.28922 -3.889035,-1.22612 -6.626004,-2.08198 -2.736972,-0.85586 -7.103918,-2.63773 -9.704329,-3.95976 -5.935299,-3.0174 -6.421945,-3.00491 -15.590161,0.39997 -8.457991,3.14111 -15.70073,5.10758 -21.179884,5.75047 -2.963927,0.34777 -4.1717318,-0.0529 -6.2203888,-2.06337 z m 59.9828748,-2.4261 c -0.149383,-0.89252 0.07956,-2.17218 0.508747,-2.84367 0.45083,-0.70538 0.310472,-1.22094 -0.332393,-1.22094 -0.612006,0 -0.83594,-0.43953 -0.497631,-0.97671 0.861258,-1.36762 -0.844864,-1.22202 -2.289104,0.19519 -1.570915,1.54167 -1.536262,6.35864 0.04977,6.91698 1.814446,0.63873 2.871107,-0.21596 2.560618,-2.07099 z M 10.39553,209.10595 c -0.6163032,-1.59959 -0.5677641,-2.86073 0.143374,-3.72511 0.866297,-1.05296 1.224433,-0.91065 1.843834,0.73257 0.42279,1.12162 1.231009,2.03933 1.796043,2.03933 0.565033,0 1.027334,0.46548 1.027334,1.03436 0,0.56891 -0.497942,0.73237 -1.106534,0.36325 -0.608596,-0.36915 -1.481333,-0.0759 -1.939417,0.65139 -0.629188,0.99909 -1.060752,0.7311 -1.764634,-1.09579 z m 34.668451,-9.78274 c 0,-0.55858 0.895733,-2.73873 1.990523,-4.84474 2.622667,-5.04514 2.510797,-5.70387 -0.497632,-2.93022 -1.368484,1.26169 -2.488154,2.87667 -2.488154,3.58884 0,0.71216 -0.439337,1.29483 -0.976302,1.29483 -1.468211,0 -2.31318,-4.45383 -1.576292,-8.30866 0.358746,-1.87667 0.423794,-3.41213 0.144559,-3.41213 -0.928507,0 -2.927914,4.34887 -3.592452,7.81386 l -0.655631,3.41856 -1.237258,-2.93019 c -1.841854,-4.36205 -0.794155,-9.77856 3.703297,-19.14563 4.967722,-10.34655 6.530514,-15.83355 5.718913,-20.07923 -0.938684,-4.91047 0.82312,-3.91972 2.84574,1.60028 2.326889,6.35038 3.180185,15.67515 1.685265,18.41643 -1.371187,2.51439 -0.342216,2.82953 1.437909,0.44037 1.105446,-1.48364 1.373097,-1.23265 2.343508,2.19765 2.452765,8.67027 0.703182,16.87784 -4.567986,21.42916 -3.023717,2.61077 -4.278002,3.03615 -4.278002,1.45082 z M 10.75875,194.90839 c -8.5241516,-3.48266 -10.48157049,-5.20763 -10.48157049,-9.23694 0,-2.6013 3.58957699,-6.82073 5.80257829,-6.82073 2.6815376,0 9.1302252,2.50802 9.6111522,3.73795 0.404187,1.0337 -0.340744,1.17628 -3.450892,0.66061 -3.6036206,-0.59748 -4.0737198,-0.42635 -5.140478,1.87134 -0.6457707,1.39093 -0.8161299,2.85676 -0.3785706,3.25739 0.4375565,0.40063 0.9981632,0.17111 1.2457954,-0.50994 0.6126102,-1.68497 3.3867792,-4.33317 3.9550482,-3.77547 0.252894,0.24808 -0.0527,1.39096 -0.679044,2.53953 -0.626358,1.14856 -0.957069,2.83445 -0.734912,3.7464 0.313282,1.28603 0.64862,1.07666 1.494432,-0.93305 1.847792,-4.39045 3.588225,-4.60965 2.773825,-0.34935 -0.595838,3.11697 -0.462536,3.59919 0.857508,3.10207 1.075569,-0.40506 1.563016,-0.0222 1.563016,1.22969 0,1.00008 0.671799,2.07131 1.492892,2.38052 1.500162,0.56495 2.142299,2.67999 0.746446,2.4586 -0.410544,-0.0651 -4.315296,-1.57649 -8.677226,-3.35862 z M 6.0352588,181.64073 c -0.5765042,-1.69732 -3.7675562,1.90118 -3.7675562,4.24861 0,1.8542 0.1656336,1.80879 2.0702788,-0.56749 1.1386512,-1.42062 1.9024278,-3.07713 1.6972774,-3.68112 z m 50.5453262,15.20979 c -1.716332,-1.68436 -2.104545,-4.32553 -0.635789,-4.32553 0.510507,0 1.231272,0.93715 1.601697,2.08253 0.494356,1.52857 0.88481,1.74699 1.467882,0.82111 0.436904,-0.69375 0.563961,-1.85065 0.282344,-2.57087 -0.281614,-0.72022 -0.0022,-1.30951 0.620947,-1.30951 0.623139,0 1.38979,0.65679 1.703665,1.45949 0.828532,2.11894 2.260586,0.84791 1.645485,-1.46046 -0.738199,-2.77033 1.109441,-2.42305 2.708432,0.50908 1.888311,3.46267 3.579432,1.4761 1.805872,-2.12135 -1.055595,-2.14114 -1.938709,-2.70487 -3.833437,-2.44708 -1.354032,0.18412 -3.168945,0.9534 -4.033137,1.70928 -2.047117,1.79052 -3.902681,1.75361 -3.902681,-0.0778 0,-1.68655 4.373361,-3.6434 12.976961,-5.8065 8.006547,-2.01301 8.58586,-1.96204 10.513164,0.92463 2.064901,3.09277 2.104581,7.02933 0.09078,9.00565 -1.397802,1.37178 -15.653584,5.06148 -19.777578,5.11884 -0.918842,0.0138 -2.374412,-0.66745 -3.234603,-1.51162 z m 14.810715,-7.01155 -0.582682,-2.68602 2.549301,2.93022 c 2.552875,2.93429 3.465348,2.02159 1.52891,-1.52932 -1.451439,-2.66154 0.527407,-2.4357 2.466738,0.28155 l 1.549328,2.17079 v -2.53958 c 0,-3.18942 -2.550055,-5.55054 -4.222282,-3.90942 -0.633674,0.62187 -2.182231,1.13068 -3.441238,1.13068 -2.540313,0 -2.741088,0.65961 -1.318473,4.3317 1.284881,3.31659 2.204544,3.20363 1.470398,-0.18052 z" style="fill:#d03222;stroke-width:0.98595446;fill-opacity:1"/>
        <path inkscape:connector-curvature="0" id="path5662" d="M 9.5968973,212.87065 C 6.631156,211.46136 4.9611795,207.5835 6.2791924,205.1666 c 1.5332519,-2.81156 3.1143093,-2.33196 1.7808334,0.54022 -0.9352077,2.01434 -0.8182514,2.77792 0.6732239,4.3953 2.3194543,2.51525 6.0975333,2.51727 7.4681253,0.003 1.325182,-2.43002 -0.119732,-5.45604 -3.039519,-6.3655 -3.3504729,-1.0436 -1.613834,-2.85403 3.619031,-3.77282 2.691936,-0.47264 4.992418,-0.9351 5.112184,-1.02765 0.119761,-0.0925 -0.87731,-2.78254 -2.215718,-5.97778 -2.505242,-5.98082 -3.178258,-9.76643 -1.562025,-8.78612 0.505279,0.30647 1.212666,1.87076 1.571973,3.47621 0.359304,1.60545 0.953596,2.92244 1.320648,2.92662 0.931314,0.0111 3.155524,4.91194 3.155524,6.95357 0,1.02525 -1.531951,2.3514 -3.901493,3.37737 -3.75683,1.62666 -3.846029,1.77235 -2.40562,3.92977 0.948625,1.42084 1.231105,3.05916 0.772141,4.47831 -0.644411,1.99257 -0.544382,2.09175 0.912728,0.90495 0.90005,-0.73307 1.636458,-2.40378 1.636458,-3.71274 0,-2.73201 1.633831,-2.19472 3.070462,1.00974 0.796381,1.77637 0.888333,1.61144 0.600259,-1.07666 -0.384583,-3.58864 0.703761,-4.14958 2.31577,-1.19358 0.594117,1.08945 1.512916,1.71839 2.041776,1.39761 0.528859,-0.32076 0.70389,-0.99236 0.388958,-1.49244 -0.76631,-1.21684 0.177426,-1.1481 2.327294,0.16944 2.250372,1.3792 9.160726,-1.23893 9.160726,-3.47078 0,-1.93587 1.599703,-1.96978 2.350437,-0.0498 0.905133,2.31482 4.479461,1.71205 7.239756,-1.22091 1.986125,-2.11038 2.378291,-2.26737 1.829872,-0.73257 -1.510544,4.22743 -1.660272,5.37204 -0.702726,5.37204 0.548281,0 1.755973,-1.13697 2.683758,-2.52657 1.961595,-2.93803 3.218934,-2.5279 1.562446,0.50963 -1.879993,3.44741 -0.02144,4.46909 2.528944,1.39027 l 2.312737,-2.79189 -0.45605,3.90693 -0.456049,3.90693 1.406054,-2.93839 c 0.773329,-1.61611 2.31217,-3.74313 3.419644,-4.72674 1.779053,-1.58004 2.340797,-1.63491 4.822765,-0.47101 4.553578,2.13533 4.410756,9.84307 -0.214356,11.56879 -2.611135,0.97428 -2.376573,1.04438 -16.384074,-4.89693 -8.085162,-3.42933 -10.779638,-3.71977 -14.203093,-1.531 -2.209746,1.41278 -23.5365,7.4503 -25.872814,7.32449 -0.675111,-0.0363 -2.184086,-0.52068 -3.3532744,-1.07627 z m 58.1817597,-3.58363 c -0.149383,-0.89252 0.07956,-2.17218 0.508747,-2.84367 0.45083,-0.70538 0.310472,-1.22094 -0.332393,-1.22094 -0.612006,0 -0.83594,-0.43953 -0.497631,-0.97671 0.892861,-1.41779 -1.072494,-1.20081 -2.211794,0.2442 -1.9223,2.43808 -2.154811,4.60993 -0.651467,6.08528 1.792722,1.75937 3.574001,1.03882 3.184538,-1.28813 z m -56.985556,0.92336 c -0.374426,-0.59458 -0.403978,-1.52057 -0.06568,-2.05775 0.338309,-0.53721 0.08596,-0.97674 -0.560759,-0.97674 -0.8473179,0 -0.8093923,-0.43335 0.135757,-1.55096 1.179455,-1.39471 1.38906,-1.34551 2.080317,0.48837 0.42279,1.12162 1.231009,2.03933 1.796043,2.03933 0.565033,0 1.027334,0.46547 1.027334,1.03436 0,0.56891 -0.497942,0.73237 -1.106534,0.36325 -0.608596,-0.36915 -1.448348,-0.12847 -1.866119,0.535 -0.540565,0.85837 -0.955873,0.89445 -1.440361,0.12514 z m 19.388646,-8.49668 c -1.890192,-1.27963 -3.865884,-3.07926 -4.390421,-3.9991 -0.720048,-1.26269 -0.271881,-1.14613 1.829226,0.47586 1.530614,1.18156 3.346419,2.14828 4.035126,2.14828 1.109234,0 2.93521,2.82327 2.235029,3.45572 -0.149722,0.13511 -1.818765,-0.8011 -3.70896,-2.08076 z m 14.882234,-2.13436 c 0,-1.37321 3.075117,-5.10098 4.207931,-5.10098 0.610102,0 1.928309,-0.72742 2.92935,-1.6165 3.108977,-2.76119 2.000341,-0.5384 -1.779152,3.56715 -3.405222,3.69901 -5.358129,4.84721 -5.358129,3.15033 z m 12.164598,-2.71453 c -1.216588,-0.83629 -2.211977,-2.15488 -2.211977,-2.9302 0,-2.14989 1.769173,-1.6794 2.529891,0.6728 0.494356,1.52857 0.88481,1.74699 1.467882,0.82111 0.436904,-0.69375 0.563961,-1.85065 0.282344,-2.57087 -0.281614,-0.72022 -0.0022,-1.30951 0.620947,-1.30951 0.623139,0 1.38979,0.65679 1.703665,1.45949 0.829756,2.12206 2.545447,0.67542 1.828416,-1.54167 -0.880155,-2.72151 0.953142,-2.293 2.525501,0.59029 1.927289,3.53413 3.640974,1.4743 2.0027,-2.40721 -1.483009,-3.51367 -2.307501,-3.63065 -7.253327,-1.02918 -3.041606,1.59983 -3.717494,1.69319 -3.717494,0.51342 0,-1.87925 3.959453,-3.82168 11.774715,-5.77649 8.236748,-2.06021 8.786771,-2.01503 10.720148,0.88075 2.052052,3.07353 2.107754,7.02623 0.126416,8.97068 -1.134278,1.11315 -15.31853,4.81999 -19.662861,5.13856 -0.288746,0.0222 -1.520382,-0.64572 -2.736966,-1.48197 z m 14.305557,-7.02595 -0.617708,-2.68602 2.495396,2.93022 c 2.209836,2.59487 2.495963,2.70105 2.500341,0.9279 0.0027,-1.10128 -0.532497,-2.52976 -1.189372,-3.17439 -0.863095,-0.84703 -0.878747,-1.17207 -0.05642,-1.17207 0.625833,0 1.835076,0.97685 2.687207,2.17079 l 1.549329,2.17079 -0.01524,-2.41499 c -0.02511,-3.97966 -1.540175,-5.57288 -3.921936,-4.12425 -1.104063,0.6715 -2.909201,1.22092 -4.011416,1.22092 -2.254629,0 -2.428768,0.72993 -1.033401,4.3317 1.290049,3.32994 2.392186,3.20653 1.613234,-0.18052 z M 12.717958,195.3379 C 1.7949824,190.93269 1.330331,190.6495 0.64790704,187.98112 c -0.73083036,-2.85765 0.99527136,-6.78477 3.71457376,-8.45116 1.9517144,-1.19602 10.5413612,1.04574 11.2839722,2.94492 0.586706,1.50047 -1.814453,1.65189 -4.427932,0.27922 -1.4786896,-0.77662 -2.1884342,-0.52868 -3.4179879,1.19409 -0.8534799,1.19582 -1.5517816,2.73571 -1.5517816,3.42199 0,1.92275 1.7823766,1.47663 2.4589747,-0.61545 0.3314223,-1.02481 1.3072048,-2.1286 2.1684068,-2.45293 1.193611,-0.44949 1.390763,-0.18079 0.829389,1.13068 -0.405039,0.9462 -0.918153,2.8192 -1.140254,4.16221 -0.37007,2.23771 -0.296978,2.29189 0.874433,0.64793 3.726096,-5.22915 3.703704,-5.22026 3.06603,-1.21676 -0.524695,3.29422 -0.379927,3.74006 1.040716,3.20504 1.115221,-0.41998 1.650191,-0.11213 1.650191,0.94952 0,0.86403 0.783768,2.15482 1.741709,2.86848 2.701833,2.01278 -0.324217,1.66692 -6.220389,-0.711 z M 6.1195624,180.92461 c -1.5268732,-0.49948 -3.8518598,2.60279 -3.8518598,5.13958 0,1.58992 0.4723844,1.3282 2.5209963,-1.39686 1.6629403,-2.21202 2.1159176,-3.4859 1.3308635,-3.74272 z" style="fill:#361e10;fill-opacity:1;stroke-width:0.98595446"/>
      </g>
    </g>
  </g>
</svg>