<?xml version="1.0" encoding="UTF-8" standalone="no"?>
<!-- Created with Inkscape (http://www.inkscape.org/) -->
<svg xmlns:dc="http://purl.org/dc/elements/1.1/" xmlns:cc="http://creativecommons.org/ns#" xmlns:rdf="http://www.w3.org/1999/02/22-rdf-syntax-ns#" xmlns:svg="http://www.w3.org/2000/svg" xmlns="http://www.w3.org/2000/svg" xmlns:sodipodi="http://sodipodi.sourceforge.net/DTD/sodipodi-0.dtd" xmlns:inkscape="http://www.inkscape.org/namespaces/inkscape" inkscape:version="0.48.4 r9939" version="1.1" id="svg2" height="297mm" width="210mm" sodipodi:docname="Nuevo documento 1">
  <sodipodi:namedview id="base" pagecolor="#ffffff" bordercolor="#666666" borderopacity="1.0" inkscape:pageopacity="0.0" inkscape:pageshadow="2" inkscape:zoom="0.49497475" inkscape:cx="781.78402" inkscape:cy="665.81158" inkscape:document-units="px" inkscape:current-layer="layer1" showgrid="true" inkscape:window-width="1024" inkscape:window-height="719" inkscape:window-x="0" inkscape:window-y="25" inkscape:window-maximized="1">
    <inkscape:grid id="grid3018" type="xygrid" snapvisiblegridlinesonly="true" enabled="true" visible="true" empspacing="5"/>
  </sodipodi:namedview>
  <defs id="defs4"/>
  <metadata id="metadata7">
    <rdf:RDF>
      <cc:Work rdf:about="">
        <dc:format>image/svg+xml</dc:format>
        <dc:type rdf:resource="http://purl.org/dc/dcmitype/StillImage"/>
        <dc:title/>
      </cc:Work>
    </rdf:RDF>
  </metadata>
  <g id="layer1" inkscape:groupmode="layer" inkscape:label="Capa 1">
    <path style="fill:#ffff00;fill-opacity:1;stroke:none" d="m 647.83735,513.77333 c 0,0 0,-217.695 0,-217.695 0,0 -299.26548,-1.14362 -299.26548,-1.14362 0,0 0,197.46252 0,197.46252 0,0 299.26548,21.3761 299.26548,21.3761 0,0 0,0 0,0" id="path3121"/>
    <path style="fill:#00adef;fill-opacity:1;stroke:none" d="m 327.46158,490.88935 c 0,0 0,-196.03531 0,-196.03531 0,0 -239.624226,-0.91571 -239.624226,-0.91571 0,0 0,179.835 0,179.835 0,0 239.624226,17.11602 239.624226,17.11602 0,0 0,0 0,0" id="path3119"/>
    <path style="fill:#008000;fill-opacity:1;stroke:none" d="m 647.83735,271.49708 c 0,0 0,-217.723748 0,-217.723748 0,0 -299.26548,21.376107 -299.26548,21.376107 0,0 0,197.488591 0,197.488591 0,0 299.26548,-1.14095 299.26548,-1.14095 0,0 0,0 0,0" id="path3117"/>
    <path style="fill:#ff0000;fill-opacity:1;stroke:none" d="m 327.46158,272.71852 c 0,0 0,-196.061204 0,-196.061204 0,0 -239.624226,17.116016 -239.624226,17.116016 0,0 0,179.858748 0,179.858748 0,0 239.624226,-0.91356 239.624226,-0.91356 0,0 0,0 0,0" id="rect2985"/>
  </g>
</svg>