<?xml version="1.0" encoding="UTF-8" standalone="no"?>
<svg
   xmlns:dc="http://purl.org/dc/elements/1.1/"
   xmlns:cc="http://creativecommons.org/ns#"
   xmlns:rdf="http://www.w3.org/1999/02/22-rdf-syntax-ns#"
   xmlns:svg="http://www.w3.org/2000/svg"
   xmlns="http://www.w3.org/2000/svg"
   xmlns:sodipodi="http://sodipodi.sourceforge.net/DTD/sodipodi-0.dtd"
   xmlns:inkscape="http://www.inkscape.org/namespaces/inkscape"
   version="1.1"
   x="0"
   y="0"
   width="347.779"
   height="152.778"
   viewBox="0, 0, 347.779, 152.778"
   id="svg13913"
   inkscape:version="0.92.4 (5da689c313, 2019-01-14)"
   sodipodi:docname="1547105615.svg">
  <metadata
     id="metadata13936">
    <rdf:RDF>
      <cc:Work
         rdf:about="">
        <dc:format>image/svg+xml</dc:format>
        <dc:type
           rdf:resource="http://purl.org/dc/dcmitype/StillImage" />
      </cc:Work>
    </rdf:RDF>
  </metadata>
  <defs
     id="defs13934" />
  <sodipodi:namedview
     pagecolor="#ffffff"
     bordercolor="#666666"
     borderopacity="1"
     objecttolerance="10"
     gridtolerance="10"
     guidetolerance="10"
     inkscape:pageopacity="0"
     inkscape:pageshadow="2"
     inkscape:window-width="1386"
     inkscape:window-height="849"
     id="namedview13932"
     showgrid="false"
     inkscape:zoom="1.675775"
     inkscape:cx="69.098246"
     inkscape:cy="76.389"
     inkscape:window-x="2989"
     inkscape:window-y="474"
     inkscape:window-maximized="0"
     inkscape:current-layer="svg13913" />
  <g
     id="Stick">
    <g
       id="Layer_6">
      <path
         d="M75.595,40.002 L75.065,41.695 C75.165,41.733 75.282,41.775 75.383,41.812 L75.383,41.928 L73.987,46.815 C73.831,46.754 73.674,46.693 73.518,46.633 L72.84,48.797 C103.584,59.925 134.41,72.129 159.132,81.24 C193.416,93.166 208.921,100.681 222.343,106.16 C227.107,108.104 232.305,110.134 233.895,110.669 C235.485,111.203 239.251,112.608 242.267,113.79 C245.281,114.973 250.724,117.068 254.362,118.445 C274.536,126.086 300.899,136.262 319.436,143.565 C331.004,148.122 341.682,152.147 343.164,152.507 C346.705,153.37 348.203,152.172 347.677,148.895 C347.255,146.265 344.517,141.828 342.63,140.717 C340.295,139.341 328.637,134.48 319.977,131.272 C315,129.428 304.641,125.472 296.958,122.481 C253.863,105.706 224.337,91.912 207.566,80.721 C202.25,77.174 200.553,76.238 198.554,75.751 C194.717,74.817 190.495,74.753 189.115,75.164 C187.936,75.514 188.094,75.717 191.929,78.782 C198.683,84.059 203.987,89.132 195.151,84.59 C194.327,84.389 188.765,82.332 182.792,80.017 C176.819,77.702 170.629,75.366 169.038,74.828 C167.445,74.29 162.042,72.252 157.029,70.299 C144.963,65.597 118.515,55.738 97.24,48.011 C90.201,45.455 82.788,42.701 75.595,40.002 z"
         fill="#000000"
         id="path49912" />
      <path
         d="M76.638,42.278 C84.477,45.201 92.994,48.331 102.557,51.797 C115.243,56.394 132.679,62.851 141.305,66.146 C149.931,69.441 162.674,74.296 169.624,76.932 C176.572,79.568 186.7,83.417 192.129,85.485 C206.604,90.999 207.049,90.574 196.684,81.124 C193.546,78.263 192.98,77.532 193.7,77.264 C195.257,76.686 199.312,77.963 202.339,79.986 C209.115,84.514 219.167,90.176 229.578,95.329 C250.534,105.701 265.804,112.19 302.56,126.338 C317.722,132.175 332.033,137.847 334.361,138.943 C338.417,140.852 341.362,141.868 343.326,144.766 C346.487,148.4 346.907,151.302 342.712,150.18 C342.03,150.112 326.921,144.592 312.411,138.895 C297.9,133.198 275.921,124.707 263.57,120.026 C251.218,115.345 234.255,108.822 225.875,105.53 C206.341,97.856 194.234,92.527 172.736,84.06 C151.238,75.592 113.35,62.062 100.074,56.762 C91.474,53.612 83.499,50.503 75.5,47.401 z"
         fill="#783E01"
         id="path49835" />
    </g>
    <g
       id="Layer_5">
      <path
         d="M112.645,59.722 C116.616,61.391 121.886,63.607 124.356,64.646 C129.995,67.02 138.631,69.94 140.688,70.168 C142.995,70.424 140.126,69.101 134.542,67.334 C129.641,65.784 128.932,65.403 130.45,65.139 C131.214,65.005 130.912,64.769 128.928,63.947 C125.596,62.566 124.708,62.394 124.468,63.084 C124.27,63.651 124.129,63.611 119.226,61.591 C114.464,59.628 109.726,57.434 110.796,57.686 C111.065,57.75 115.081,58.961 119.72,60.377 C128.556,63.076 134.19,65.119 143.516,69.008 C146.596,70.292 152.419,72.86 156.456,74.309 C160.494,75.757 165.826,77.911 168.248,78.921 C172.548,80.713 175.596,81.221 175.15,80.652 C175.028,80.496 171.907,79.254 168.214,77.892 C164.522,76.53 157.926,73.925 153.559,72.103 C149.191,70.282 142.523,67.563 138.741,66.062 C131.39,63.145 106.959,55.061 106.074,55.253 C105.781,55.316 105.516,55.665 105.483,56.028 C105.434,56.574 106.665,57.209 112.645,59.722 z"
         fill="#000000"
         id="path49827" />
      <path
         d="M201.085,93.245 C205.275,95.257 214.493,99.149 215.85,99.48 C216.472,99.631 219.207,100.631 221.928,101.701 C224.65,102.772 227.07,103.604 227.306,103.551 C228.045,103.384 223.267,100.71 220.067,99.68 C216.249,98.452 204.667,94.067 202.298,92.775 C200.407,91.744 197.425,90.858 197.84,91.45 C197.977,91.646 199.437,92.454 201.085,93.245 z"
         fill="#000000"
         id="path49825" />
      <path
         d="M243.242,108.55 C249.408,110.932 257.125,114.125 260.333,115.239 C263.541,116.352 269.247,118.628 273.128,120.353 C282.269,124.416 287.133,126.078 287.721,125.945 C288.811,125.699 266.202,116.016 256.937,112.76 C254.345,111.85 249.207,109.692 245.228,108.138 C241.25,106.584 236.35,105.005 234.628,104.455 C228.378,102.458 232.28,104.313 243.242,108.55 z"
         fill="#000000"
         id="path49823" />
      <path
         d="M296.261,126.869 C296.783,127.082 299.055,128.302 301.6,129.175 C304.144,130.048 310.355,132.604 315.17,134.682 C330.135,141.14 331.083,141.032 332.01,141.025 C332.507,141.02 332.799,140.854 332.659,140.654 C332.339,140.197 325.534,137.374 320.531,135.623 C318.446,134.893 314.305,133.238 311.328,131.945 C304.53,128.992 296.061,125.911 295.635,126.236 C295.457,126.37 295.739,126.656 296.261,126.869 z"
         fill="#000000"
         id="path49821" />
      <path
         d="M316.19,139.438 C319.747,141.007 322.412,141.645 322.833,141.551 C323.253,141.456 322.663,140.987 321.347,140.369 C319.172,139.348 310.943,136.369 310.547,136.458 C310.432,136.484 312.945,138.007 316.19,139.438 z"
         fill="#000000"
         id="path25210" />
    </g>
  </g>
  <g
     id="g14478"
     style="fill:none" />
</svg>
